<?xml version="1.0" encoding="UTF-8" standalone="no"?>
<svg
   xmlns:dc="http://purl.org/dc/elements/1.1/"
   xmlns:cc="http://creativecommons.org/ns#"
   xmlns:rdf="http://www.w3.org/1999/02/22-rdf-syntax-ns#"
   xmlns:svg="http://www.w3.org/2000/svg"
   xmlns="http://www.w3.org/2000/svg"
   xmlns:sodipodi="http://sodipodi.sourceforge.net/DTD/sodipodi-0.dtd"
   xmlns:inkscape="http://www.inkscape.org/namespaces/inkscape"
   id="SVGRoot"
   version="1.1"
   viewBox="0 0 16.0 16.0"
   height="16.0px"
   width="16.0px"
   inkscape:version="1.0 (4035a4fb49, 2020-05-01)"
   sodipodi:docname="favicon.svg">
  <defs
     id="defs1402">
    <inkscape:path-effect
       effect="fillet_chamfer"
       id="path-effect1998"
       is_visible="true"
       lpeversion="1"
       satellites_param="F,0,0,1,0,4,0,1 @ F,0,0,1,0,4,0,1 @ F,0,0,1,0,4,0,1 @ F,0,0,1,0,4,0,1 @ F,0,0,1,0,4,0,1 @ F,0,0,1,0,4,0,1 @ F,0,0,1,0,4,0,1 @ F,0,0,1,0,4,0,1"
       unit="pt"
       method="bezier"
       mode="F"
       radius="3"
       chamfer_steps="1"
       flexible="false"
       use_knot_distance="true"
       apply_no_radius="true"
       apply_with_radius="true"
       only_selected="false"
       hide_knots="false" />
    <inkscape:path-effect
       effect="bspline"
       id="path-effect1996"
       is_visible="true"
       lpeversion="1"
       weight="30.6333"
       steps="2"
       helper_size="0"
       apply_no_weight="true"
       apply_with_weight="true"
       only_selected="false" />
    <filter
       style="color-interpolation-filters:sRGB;"
       inkscape:label="Invert"
       id="filter2007">
      <feColorMatrix
         type="hueRotate"
         values="180"
         result="color1"
         id="feColorMatrix2003" />
      <feColorMatrix
         values="-1 0 0 0 1 0 -1 0 0 1 0 0 -1 0 1 -0.21 -0.72 -0.07 2 0 "
         result="color2"
         id="feColorMatrix2005" />
    </filter>
  </defs>
  <sodipodi:namedview
     id="base"
     pagecolor="#ffffff"
     bordercolor="#666666"
     borderopacity="1.0"
     inkscape:pageopacity="0.0"
     inkscape:pageshadow="2"
     inkscape:zoom="22.627417"
     inkscape:cx="1.7168977"
     inkscape:cy="10.55418"
     inkscape:document-units="px"
     inkscape:current-layer="layer1"
     inkscape:document-rotation="0"
     showgrid="true"
     inkscape:window-width="1920"
     inkscape:window-height="1009"
     inkscape:window-x="-8"
     inkscape:window-y="-8"
     inkscape:window-maximized="1">
    <inkscape:grid
       id="grid1972"
       type="xygrid"
       empspacing="8"
       spacingy="0.5"
       spacingx="0.5" />
  </sodipodi:namedview>
  <metadata
     id="metadata1405">
    <rdf:RDF>
      <cc:Work
         rdf:about="">
        <dc:format>image/svg+xml</dc:format>
        <dc:type
           rdf:resource="http://purl.org/dc/dcmitype/StillImage" />
        <dc:title />
      </cc:Work>
    </rdf:RDF>
  </metadata>
  <g
     inkscape:label="Layer 1"
     inkscape:groupmode="layer"
     id="layer1">
    <path
       style="fill:#00639b;fill-opacity:1;stroke:none;stroke-width:1.33334px;stroke-linecap:butt;stroke-linejoin:miter;stroke-opacity:1"
       d="m 3.9990587,2.0852212e-6 c 5.9e-6,7e-13 1.18e-5,1.4e-12 1.77e-5,2.1e-12 8.0000056,-1.3e-12 8.0000106,-7e-13 8.0000166,0 2.209139,0 4.000975,1.7898608147767 4.000975,3.9989998147767 0,6.1e-6 0,1.22e-5 0,1.83e-5 0,8.0000058 0,8.0000108 0,8.0000168 0,2.209139 -1.791836,4.000975 -4.000975,4.000975 -6e-6,0 -1.1e-5,0 -1.7e-5,0 -8.0000055,0 -8.0000114,0 -8.0000173,0 -2.2091389,0 -3.998999798107,-1.791836 -3.998999798107,-4.000975 0,-6e-6 -1e-12,-1.1e-5 -2e-12,-1.7e-5 2e-12,-8.0000059 10e-13,-8.000012 0,-8.0000181 C 5.8901891e-5,1.7898629 1.7899198,2.0852212e-6 3.9990587,2.0852212e-6 Z"
       id="path1994"
       sodipodi:nodetypes="ccccccccc"
       inkscape:path-effect="#path-effect1998"
       inkscape:original-d="m -9.4110005e-4,-9.9791672e-4 c 2.45200280005,0.001333336 5.55068140005,0.001333336 8.00001730005,0 2.4520018,0.001333336 5.5506808,0.001333336 8.0000168,0 0.0013,2.45200321672 0.0013,5.55068191672 0,8.00001791672 0.0013,2.452003 0.0013,5.550681 0,8.000017 -2.449336,0.0013 -5.548015,0.0013 -8.0000168,0 -2.4493359,0.0013 -5.5480145,0.0013 -8.00001730005,0 0.001333336,-2.449336 0.001333336,-5.548014 0,-8.000017 0.001333336,-2.449336 0.001333336,-5.5480147 0,-8.00001791672 z" />
    <path
       id="path1979"
       d="M 8,8.375 Z M 11.784376,5.75 q 0,-0.8531246 -0.590626,-1.4437499 -0.590625,-0.590625 -1.4437501,-0.590625 V 3.125 q 1.0937491,0 1.8593751,0.7656251 Q 12.375,4.6562501 12.375,5.75 Z m -1.159376,0 q 0,-0.3609379 -0.257031,-0.6179684 Q 10.110938,4.8750001 9.7499999,4.8750001 V 4.284375 q 0.6015631,0 1.0226561,0.4265625 Q 11.19375,5.1375004 11.215626,5.75 Z M 4.5,11.875 q -0.3609375,0 -0.6179687,-0.257031 Q 3.625,11.360938 3.625,11 V 5.75 Q 3.625,5.3890621 3.8820313,5.1320316 4.1390625,4.8750001 4.5,4.8750001 h 1.378125 l 0.809375,-0.875 h 2.625 v 0.875 H 7.0703124 L 6.271875,5.75 H 4.5 V 11 h 7.000001 V 6.1875 H 12.375 V 11 q 0,0.360938 -0.257031,0.617969 Q 11.860938,11.875 11.5,11.875 Z M 8,10.343749 q 0.8203124,0 1.3945309,-0.5742177 Q 9.9687491,9.1953123 9.9687491,8.375 q 0,-0.8203124 -0.5742182,-1.394531 Q 8.8203124,6.4062504 8,6.4062504 q -0.8203124,0 -1.3945309,0.5742186 Q 6.03125,7.5546876 6.03125,8.375 q 0,0.8203123 0.5742191,1.3945313 Q 7.1796876,10.343749 8,10.343749 Z M 8,9.4687491 q -0.4593754,0 -0.7765625,-0.3171867 Q 6.9062496,8.8343745 6.9062496,8.375 q 0,-0.4593746 0.3171879,-0.7765625 Q 7.5406246,7.2812504 8,7.2812504 q 0.4593754,0 0.7765625,0.3171871 0.3171879,0.3171879 0.3171879,0.7765625 0,0.4593745 -0.3171879,0.7765624 Q 8.4593754,9.4687491 8,9.4687491 Z"
       style="stroke-width:0.00992126;stroke-miterlimit:4;stroke-dasharray:none;filter:url(#filter2007)"
       transform="matrix(1.1428596,0,0,1.1428596,-1.1428878,-1.1047736)" />
  </g>
  <g
     inkscape:groupmode="layer"
     id="layer2"
     inkscape:label="Layer 2" />
</svg>
